<svg xmlns="http://www.w3.org/2000/svg" width="33" height="45" fill="none" viewBox="0 0 33 45">
  <path fill="#FF7F7F" d="M13.51 2.534c-.012-1.016.03-1.868.3-2.534h4.462c.27.666.312 1.518.3 2.534h12.663c.466 0 .845.378.845.844V5.91a.844.844 0 0 1-.845.844H.846a.844.844 0 0 1-.844-.844V3.378c0-.466.378-.844.844-.844H13.51Z"/>
  <path fill="#FF7F7F" fill-rule="evenodd" d="M0 9.429c0-.171.165-.145.18-.143.694-.004 3.153-.022 6.424-.047h.001c8.397-.063 22.143-.166 25.12-.166.316 0 .355 0 .355.214s-5.67 32.698-6.737 33.766c-1.067 1.067-17.003 1.6-18.605 0C5.137 41.45 0 9.607 0 9.429Zm9.287 4.078a.844.844 0 0 0-.844.844v21.103a.844.844 0 1 0 1.688 0V14.351a.844.844 0 0 0-.844-.844Zm5.909.844a.844.844 0 1 1 1.688 0v21.103a.844.844 0 0 1-1.688 0V14.351Zm7.597-.844a.844.844 0 0 0-.844.844v21.103a.844.844 0 1 0 1.688 0V14.351a.844.844 0 0 0-.844-.844Z" clip-rule="evenodd"/>
</svg>
