<svg xmlns="http://www.w3.org/2000/svg" width="37" height="42" fill="none" viewBox="0 0 37 42">
  <path stroke="#0154B8" stroke-width="3.2" d="M12.559 33.548c-.168 2.19.806 6.57 6.043 6.57s6.547-4.38 6.547-6.57m-6.556 1.517c-3.742 0-13.707-1.246-16.247-6.052-.75-1.421-.634-2.811 2.166-7.597 2.393-4.09 3.076-7.38 3.868-11.008 1.117-5.117 8.236-8.695 10.213-8.695 1.805 0 9.096 3.578 10.213 8.695.792 3.628 1.475 6.919 3.868 11.008 2.8 4.786 2.917 6.176 2.166 7.597-2.54 4.805-12.172 6.052-16.247 6.052Z"/>
</svg>
