<svg xmlns="http://www.w3.org/2000/svg" width="60" height="70" fill="none" viewBox="0 0 60 70">
  <path fill="#fff" fill-rule="evenodd" d="M29.418 4.027c-1.184-.006-2.63.605-5.228 2.577L21.942 3.64C24.59 1.633 26.91.295 29.438.31c2.53.013 4.795 1.38 7.326 3.345l-2.28 2.937c-2.493-1.935-3.885-2.557-5.066-2.564ZM13.533 19.974c3.174-4.748 8.344-8.85 16.317-9.621v3.739c-6.546.738-10.652 4.1-13.226 7.948-2.986 4.467-3.912 9.624-3.912 12.165v.419c.003 2.604.006 4.658-1.072 7.355-.974 2.438-2.811 5.371-6.146 9.985.128.056.266.114.414.173 1.146.458 2.817.964 5.126 1.434 4.133.841 10.219 1.548 18.816 1.686v3.72c-2.88-.046-5.498-.154-7.871-.31-.06 1.24.161 2.738.911 3.976.86 1.422 2.604 2.816 6.372 2.816 3.881 0 6.043-1.278 7.187-2.703.967-1.205 1.354-2.694 1.29-4.075-2.377.157-5 .266-7.886.311v-3.72c8.597-.137 14.683-.844 18.816-1.685 2.309-.47 3.98-.977 5.126-1.434.148-.06.286-.117.414-.174-3.335-4.613-5.172-7.546-6.146-9.984-1.078-2.697-1.075-4.751-1.072-7.355v-.42c0-2.54-.926-7.697-3.912-12.164-2.574-3.849-6.68-7.21-13.226-7.948v-3.74c7.973.772 13.143 4.874 16.317 9.622 3.457 5.17 4.54 11.074 4.54 14.23v.242c-.001 2.73-.001 4.132.806 6.153.882 2.209 2.75 5.174 6.87 10.78l.905 1.232-1.034 1.126c-.65.706-1.742 1.317-3.082 1.853-1.406.561-3.302 1.123-5.764 1.625-2.17.442-4.805.84-7.964 1.149.13 2.223-.468 4.674-2.098 6.704-1.999 2.49-5.34 4.093-10.087 4.093-4.859 0-7.917-1.905-9.553-4.608-1.241-2.05-1.545-4.362-1.437-6.203-3.167-.309-5.805-.709-7.98-1.151-2.462-.501-4.358-1.063-5.764-1.625-1.34-.535-2.433-1.147-3.081-1.853L.412 52.611l.906-1.233c4.12-5.605 5.987-8.57 6.869-10.779.807-2.021.807-3.423.806-6.152v-.242c0-3.157 1.083-9.06 4.54-14.231Z" clip-rule="evenodd"/>
</svg>
