<svg xmlns="http://www.w3.org/2000/svg" width="69" height="69" fill="none" viewBox="0 0 69 69">
  <circle cx="34.206" cy="34.347" r="32.066" stroke="#fff" stroke-width="3.719"/>
  <circle cx="34.206" cy="19.244" r="7.668" stroke="#fff" stroke-width="3.719"/>
  <mask id="a" width="61" height="36" x="3.962" y="33.281" fill="#000" maskUnits="userSpaceOnUse">
    <path fill="#fff" d="M3.962 33.281h61v36h-61z"/>
    <path fill-rule="evenodd" d="M8.962 50.996c5.391-8.257 14.714-13.715 25.312-13.715 10.553 0 19.843 5.413 25.244 13.613-5.391 8.258-14.714 13.715-25.312 13.715-10.553 0-19.843-5.412-25.244-13.613Z" clip-rule="evenodd"/>
  </mask>
  <path fill="#fff" d="m8.962 50.996-3.114-2.033-1.333 2.042 1.341 2.037 3.106-2.046Zm50.556-.102 3.114 2.033 1.333-2.042-1.341-2.037-3.106 2.046Zm-47.442 2.135C16.809 45.78 24.984 41 34.274 41v-7.437c-11.906 0-22.377 6.137-28.426 15.401l6.228 4.066ZM34.274 41c9.25 0 17.396 4.74 22.138 11.94l6.212-4.09c-6.06-9.201-16.494-15.286-28.35-15.286V41Zm22.13 7.862c-4.734 7.25-12.909 12.03-22.198 12.03v7.437c11.906 0 22.377-6.136 28.426-15.401l-6.228-4.066ZM34.206 60.89c-9.25 0-17.396-4.74-22.139-11.94l-6.21 4.09c6.06 9.201 16.493 15.287 28.35 15.287V60.89Z" mask="url(#a)"/>
</svg>
