<svg xmlns="http://www.w3.org/2000/svg" width="710" height="556" fill="none" viewBox="0 0 710 556">
  <g filter="url(#a)">
    <path fill="#0154B8" fill-opacity=".22" d="M0 .149h710v555.419H0z"/>
  </g>
  <path stroke="#0154B8" stroke-dasharray="19.64 19.64" stroke-width="1.964" d="M.982 1.131h708.036v553.455H.982z"/>
  <path fill="#0154B8" fill-opacity=".4" d="M346.789 314.553V282.54H316.74v-15.32h30.049v-32.013h16.694v32.013h29.853v15.32h-29.853v32.013h-16.694Zm-82.428-127.161c-1.306 0-2.451-.034-3.437-.103-.962-.069-1.924-.149-2.887-.241v-23.921a51.335 51.335 0 0 1 3.162-.241 54.352 54.352 0 0 1 3.54-.103c2.062 0 3.838.321 5.328.963 1.512.641 2.749 1.523 3.712 2.646a10.583 10.583 0 0 1 2.165 3.918c.481 1.467.722 3.048.722 4.743 0 1.673-.241 3.254-.722 4.743a11.06 11.06 0 0 1-2.234 3.953c-.985 1.123-2.257 2.016-3.815 2.681-1.535.641-3.38.962-5.534.962Zm.103-2.853c2.063 0 3.747-.401 5.053-1.203a7.183 7.183 0 0 0 2.887-3.333c.618-1.444.928-3.094.928-4.95 0-1.649-.31-3.196-.928-4.64a7.844 7.844 0 0 0-2.853-3.471c-1.283-.894-2.921-1.34-4.915-1.34-.664 0-1.272.022-1.821.068-.55.023-1.054.058-1.513.103v18.595c.481.068.986.114 1.513.137.527.023 1.077.034 1.649.034Zm16.657 2.578v-17.872h2.991v3.884a8.272 8.272 0 0 1 1.203-2.097 5.512 5.512 0 0 1 1.89-1.581c.756-.412 1.638-.619 2.646-.619.344 0 .688.023 1.032.069.343.023.63.069.859.138l-.928 3.196c-.436-.183-.951-.275-1.547-.275-.848 0-1.661.241-2.44.722-.756.481-1.386 1.226-1.89 2.234-.482 1.008-.722 2.291-.722 3.849v8.352h-3.094Zm19.527.413c-1.489 0-2.841-.378-4.055-1.135-1.215-.756-2.188-1.821-2.922-3.196-.71-1.398-1.065-3.036-1.065-4.915 0-1.787.355-3.391 1.065-4.812.734-1.42 1.73-2.543 2.991-3.368 1.283-.848 2.749-1.272 4.399-1.272 1.031 0 1.959.184 2.784.55a8 8 0 0 1 2.2 1.306v-1.443h2.818v13.542c0 .87.206 1.443.619 1.718.435.252.905.378 1.409.378l-.653 2.406c-2.2 0-3.529-.894-3.987-2.681-.527.733-1.249 1.409-2.166 2.028-.893.596-2.039.894-3.437.894Zm.688-2.75c.871 0 1.695-.206 2.474-.619a6.763 6.763 0 0 0 1.96-1.615v-9.589a7.876 7.876 0 0 0-2.063-1.031 6.598 6.598 0 0 0-2.337-.413c-1.1 0-2.073.287-2.921.859-.825.55-1.478 1.329-1.959 2.338-.482.985-.722 2.142-.722 3.471 0 1.283.24 2.429.722 3.437.481.985 1.145 1.764 1.993 2.337.848.55 1.799.825 2.853.825Zm19.915 10.311c-1.054 0-2.086-.126-3.094-.378a8.886 8.886 0 0 1-2.646-1.134l1.134-2.681a7.08 7.08 0 0 0 1.925 1.065c.733.298 1.627.447 2.681.447 1.626 0 2.898-.435 3.815-1.306.939-.848 1.409-2.211 1.409-4.09v-2.2c-.458.55-1.123 1.077-1.994 1.581-.847.482-1.867.722-3.059.722a7.702 7.702 0 0 1-3.849-1.031c-1.214-.71-2.2-1.741-2.956-3.093-.756-1.352-1.134-2.979-1.134-4.881 0-1.787.367-3.379 1.1-4.777.756-1.398 1.764-2.498 3.024-3.3a7.594 7.594 0 0 1 4.159-1.203c1.008 0 1.925.172 2.75.516.825.344 1.535.767 2.131 1.272v-1.375h2.818v17.46c0 1.97-.344 3.574-1.031 4.812-.688 1.237-1.65 2.142-2.887 2.715-1.215.573-2.647.859-4.296.859Zm.859-10.723c.916 0 1.741-.207 2.474-.619.734-.413 1.329-.894 1.788-1.444v-9.348c-.504-.367-1.112-.699-1.822-.997-.71-.298-1.535-.447-2.475-.447a4.99 4.99 0 0 0-2.646.756c-.825.504-1.501 1.238-2.028 2.2-.504.939-.756 2.097-.756 3.471 0 1.306.252 2.441.756 3.403.527.962 1.203 1.707 2.028 2.234a4.885 4.885 0 0 0 2.681.791ZM353 187.53c-1.374 0-2.635-.264-3.78-.791-1.146-.55-2.063-1.306-2.75-2.268-.687-.986-1.031-2.143-1.031-3.472 0-1.443.367-2.749 1.1-3.918.733-1.168 1.947-2.222 3.643-3.162-.848-.939-1.489-1.822-1.925-2.646-.412-.825-.618-1.776-.618-2.853 0-1.1.24-2.085.721-2.956a5.436 5.436 0 0 1 2.131-2.062c.917-.504 1.994-.756 3.231-.756 1.237 0 2.28.24 3.128.722.871.458 1.535 1.076 1.993 1.855.459.78.688 1.639.688 2.578 0 1.467-.424 2.715-1.272 3.747-.848 1.031-2.188 1.993-4.021 2.887l5.671 5.396a6.29 6.29 0 0 0 .653-1.684c.137-.619.263-1.226.378-1.822a6.63 6.63 0 0 1 .584-1.65c.252-.504.63-.905 1.134-1.203.504-.298 1.192-.447 2.063-.447l.756 2.441c-.711 0-1.226.206-1.547.618-.321.413-.561.94-.722 1.581a49.788 49.788 0 0 1-.481 2.028 5.95 5.95 0 0 1-.825 1.925l4.056 3.712-1.925 2.062-3.643-3.437a11.98 11.98 0 0 1-3.128 2.578c-1.145.664-2.566.997-4.262.997Zm-.275-14.711c1.421-.733 2.429-1.466 3.025-2.199.619-.734.928-1.57.928-2.509 0-.825-.275-1.524-.825-2.097-.55-.596-1.283-.894-2.2-.894-.916 0-1.672.31-2.268.928-.596.619-.894 1.398-.894 2.338 0 1.489.745 2.967 2.234 4.433Zm.757 11.892c.985 0 1.901-.229 2.749-.687a7.38 7.38 0 0 0 2.269-1.959l-6.771-6.496c-1.009.71-1.765 1.455-2.269 2.234-.504.756-.756 1.673-.756 2.75 0 1.191.447 2.188 1.341 2.99.893.779 2.039 1.168 3.437 1.168Zm33.926 2.681c-1.306 0-2.451-.034-3.437-.103-.962-.069-1.924-.149-2.887-.241v-23.921a51.335 51.335 0 0 1 3.162-.241 54.406 54.406 0 0 1 3.541-.103c2.062 0 3.838.321 5.327.963 1.512.641 2.75 1.523 3.712 2.646a10.583 10.583 0 0 1 2.165 3.918c.481 1.467.722 3.048.722 4.743 0 1.673-.241 3.254-.722 4.743a11.06 11.06 0 0 1-2.234 3.953c-.985 1.123-2.257 2.016-3.815 2.681-1.535.641-3.38.962-5.534.962Zm.104-2.853c2.062 0 3.746-.401 5.052-1.203a7.183 7.183 0 0 0 2.887-3.333c.619-1.444.928-3.094.928-4.95 0-1.649-.309-3.196-.928-4.64a7.838 7.838 0 0 0-2.853-3.471c-1.283-.894-2.921-1.34-4.915-1.34-.664 0-1.271.022-1.821.068-.55.023-1.054.058-1.512.103v18.595c.481.068.985.114 1.512.137.527.023 1.077.034 1.65.034Zm16.657 2.578v-17.872h2.99v3.884a8.302 8.302 0 0 1 1.203-2.097 5.512 5.512 0 0 1 1.89-1.581c.756-.412 1.639-.619 2.647-.619.343 0 .687.023 1.031.069.344.023.63.069.859.138l-.928 3.196c-.435-.183-.951-.275-1.547-.275-.847 0-1.661.241-2.44.722-.756.481-1.386 1.226-1.89 2.234-.481 1.008-.722 2.291-.722 3.849v8.352h-3.093Zm20.214.413c-1.695 0-3.219-.39-4.571-1.169a8.683 8.683 0 0 1-3.197-3.299c-.756-1.421-1.134-3.048-1.134-4.881 0-1.925.39-3.586 1.169-4.984.779-1.397 1.844-2.474 3.196-3.23 1.352-.757 2.864-1.135 4.537-1.135s3.174.378 4.503 1.135c1.351.756 2.417 1.833 3.196 3.23.802 1.375 1.203 3.013 1.203 4.915 0 1.902-.39 3.563-1.169 4.984-.779 1.398-1.844 2.486-3.196 3.265-1.329.779-2.841 1.169-4.537 1.169Zm0-2.75c1.81 0 3.219-.607 4.228-1.822 1.008-1.237 1.512-2.829 1.512-4.777 0-1.192-.252-2.28-.756-3.265-.504-1.008-1.192-1.81-2.062-2.406-.848-.619-1.822-.928-2.922-.928-1.81 0-3.219.596-4.227 1.787-1.009 1.192-1.513 2.773-1.513 4.743 0 1.192.252 2.303.756 3.334.505 1.008 1.18 1.822 2.028 2.44.871.596 1.856.894 2.956.894Zm12.996 9.899v-20.863c0-.779-.195-1.329-.584-1.65-.367-.343-.848-.515-1.444-.515l.653-2.406c2.108 0 3.426.836 3.953 2.509.229-.344.596-.745 1.1-1.203.527-.458 1.168-.859 1.925-1.203.779-.344 1.661-.516 2.646-.516 1.375 0 2.658.367 3.849 1.1 1.215.711 2.189 1.753 2.922 3.128.733 1.352 1.1 3.002 1.1 4.949 0 1.902-.367 3.575-1.1 5.018-.733 1.421-1.696 2.532-2.887 3.334-1.169.779-2.44 1.169-3.815 1.169a7.129 7.129 0 0 1-2.956-.619c-.917-.435-1.673-.928-2.268-1.478v9.246h-3.094Zm7.699-9.899c1.558 0 2.818-.607 3.781-1.822.985-1.237 1.478-2.852 1.478-4.846 0-1.375-.252-2.555-.756-3.54-.482-.985-1.135-1.741-1.959-2.268a4.778 4.778 0 0 0-2.681-.791c-.986 0-1.879.252-2.681.756-.779.482-1.375 1.009-1.787 1.581v8.799a8.1 8.1 0 0 0 2.062 1.547 5.614 5.614 0 0 0 2.543.584Z"/>
  <defs>
    <filter id="a" width="710" height="555.419" x="0" y=".149" color-interpolation-filters="sRGB" filterUnits="userSpaceOnUse">
      <feFlood flood-opacity="0" result="BackgroundImageFix"/>
      <feBlend in="SourceGraphic" in2="BackgroundImageFix" result="shape"/>
      <feColorMatrix in="SourceAlpha" result="hardAlpha" values="0 0 0 0 0 0 0 0 0 0 0 0 0 0 0 0 0 0 127 0"/>
      <feMorphology in="SourceAlpha" radius="3.928" result="effect1_innerShadow_49_2127"/>
      <feOffset/>
      <feGaussianBlur stdDeviation="7.856"/>
      <feComposite in2="hardAlpha" k2="-1" k3="1" operator="arithmetic"/>
      <feColorMatrix values="0 0 0 0 0 0 0 0 0 0 0 0 0 0 0 0 0 0 0.25 0"/>
      <feBlend in2="shape" result="effect1_innerShadow_49_2127"/>
    </filter>
  </defs>
</svg>
