<svg width="160" height="80" viewBox="0 0 160 80" fill="none" xmlns="http://www.w3.org/2000/svg">
<g filter="url(#filter0_d_56_2160)">
<path fill-rule="evenodd" clip-rule="evenodd" d="M38.2254 1C17.8875 1 1.40039 17.4871 1.40039 37.825C1.40039 58.1629 17.8875 74.65 38.2254 74.65H117.964C138.302 74.65 154.789 58.1629 154.789 37.825C154.789 17.4871 138.302 1 117.964 1H38.2254ZM113.12 35.9909L97.4966 20.3674C96.5378 19.4087 94.9834 19.4087 94.0247 20.3674C93.0659 21.3261 93.0659 22.8805 94.0247 23.8393L105.457 35.2719L45.001 35.2719V40.1819L105.457 40.1819L94.0247 51.6144C93.0659 52.5732 93.0659 54.1276 94.0247 55.0863C94.9834 56.0451 96.5378 56.0451 97.4966 55.0863L113.12 39.4628C114.079 38.5041 114.079 36.9497 113.12 35.9909Z" fill="#0154B8"/>
</g>
<defs>
<filter id="filter0_d_56_2160" x="0.614791" y="0.2144" width="158.887" height="79.1491" filterUnits="userSpaceOnUse" color-interpolation-filters="sRGB">
<feFlood flood-opacity="0" result="BackgroundImageFix"/>
<feColorMatrix in="SourceAlpha" type="matrix" values="0 0 0 0 0 0 0 0 0 0 0 0 0 0 0 0 0 0 127 0" result="hardAlpha"/>
<feMorphology radius="0.7856" operator="dilate" in="SourceAlpha" result="effect1_dropShadow_56_2160"/>
<feOffset dx="1.964" dy="1.964"/>
<feGaussianBlur stdDeviation="0.982"/>
<feComposite in2="hardAlpha" operator="out"/>
<feColorMatrix type="matrix" values="0 0 0 0 0 0 0 0 0 0 0 0 0 0 0 0 0 0 0.25 0"/>
<feBlend mode="normal" in2="BackgroundImageFix" result="effect1_dropShadow_56_2160"/>
<feBlend mode="normal" in="SourceGraphic" in2="effect1_dropShadow_56_2160" result="shape"/>
</filter>
</defs>
</svg>
