<svg width="60" height="70" viewBox="0 0 60 70" fill="none" xmlns="http://www.w3.org/2000/svg">
<path fill-rule="evenodd" clip-rule="evenodd" d="M29.4179 4.0283C28.234 4.02195 26.7882 4.63344 24.19 6.60482L21.9423 3.64236C24.5886 1.63443 26.91 0.296108 29.4379 0.309672C31.9689 0.323254 34.2331 1.69025 36.7637 3.65491L34.4832 6.59227C31.9909 4.6573 30.5986 4.03464 29.4179 4.0283ZM13.5328 19.9747C16.7068 15.2268 21.8771 11.1248 29.8501 10.3539V14.093C23.3043 14.8312 19.1975 18.1922 16.6242 22.0414C13.6384 26.5077 12.712 31.6651 12.712 34.2056C12.712 34.3469 12.7122 34.4864 12.7124 34.6244V34.6248C12.7153 37.229 12.7177 39.2827 11.6403 41.9797C10.6663 44.4178 8.8287 47.3509 5.4936 51.9646C5.62189 52.0208 5.75982 52.0786 5.90781 52.1377C7.0542 52.5956 8.7252 53.1019 11.0336 53.5718C15.1672 54.4133 21.2529 55.1199 29.8501 55.258V58.9771C26.9695 58.9318 24.352 58.8238 21.979 58.6673C21.919 59.9076 22.1403 61.4058 22.89 62.6443C23.7504 64.0656 25.4939 65.4596 29.2622 65.4596C33.1431 65.4596 35.305 64.1822 36.4491 62.7571C37.4162 61.5524 37.8031 60.0633 37.7395 58.6821C35.3623 58.8391 32.7398 58.9475 29.8529 58.993V55.2738C38.4502 55.1357 44.5359 54.4291 48.6694 53.5877C50.9778 53.1177 52.6488 52.6115 53.7952 52.1535C53.9432 52.0944 54.0811 52.0366 54.2094 51.9804C50.8743 47.3668 49.0367 44.4337 48.0627 41.9955C46.9854 39.2985 46.9877 37.2448 46.9907 34.6407C46.9908 34.5025 46.991 34.3628 46.991 34.2214C46.991 31.6809 46.0646 26.5236 43.0788 22.0572C40.5055 18.208 36.3987 14.8471 29.8529 14.1088V10.3697C37.826 11.1407 42.9963 15.2427 46.1703 19.9905C49.6269 25.1611 50.7097 31.0649 50.7097 34.2214L50.7096 34.4634C50.709 37.1924 50.7086 38.5947 51.5161 40.616C52.3984 42.8246 54.2653 45.7898 58.3852 51.3952L59.2909 52.6275L58.2565 53.754C57.6079 54.4603 56.5152 55.0714 55.1748 55.6068C53.7688 56.1685 51.8731 56.7304 49.4112 57.2316C47.2401 57.6736 44.6063 58.0728 41.4467 58.381C41.577 60.6039 40.9788 63.055 39.3489 65.0851C37.3501 67.5749 34.009 69.1783 29.2622 69.1783C24.403 69.1783 21.3451 67.273 19.7088 64.5701C18.468 62.5204 18.1643 60.2078 18.2719 58.3667C15.1054 58.0582 12.4665 57.6585 10.2918 57.2158C7.8299 56.7146 5.93427 56.1527 4.52826 55.591C3.18789 55.0555 2.09518 54.4445 1.44654 53.7382L0.412109 52.6117L1.31784 51.3794C5.43776 45.774 7.30468 42.8088 8.18697 40.6002C8.99441 38.5789 8.99407 37.1765 8.9934 34.4476L8.99336 34.2056C8.99336 31.0491 10.0762 25.1452 13.5328 19.9747Z" fill="white"/>
</svg>
