<svg xmlns="http://www.w3.org/2000/svg" width="41" height="35" fill="none" viewBox="0 0 41 35">
  <path fill="#0154B8" d="M28.214 0a4.67 4.67 0 0 1 3.567 1.656L29.33 3.639a1.555 1.555 0 0 0-1.115-.47H4.702c-.865 0-1.567.709-1.567 1.584v24.82c0 .8.586 1.46 1.348 1.569l-.04.086.325-.07h23.446c.866 0 1.568-.71 1.568-1.585V18.215l3.135-2.534v13.892c0 2.625-2.106 4.753-4.703 4.753H4.702C2.105 34.326 0 32.198 0 29.573V4.753C0 2.128 2.105 0 4.702 0h23.512Z"/>
  <path fill="#0154B8" d="M41 7.423 35.452.413 31.78 3.38l5.548 7.01L41 7.424Zm-4.896 3.958-5.548-7.01-16.322 13.194 5.548 7.01 16.322-13.194ZM8.848 27.667l4.047-8.835 5.37 6.785-9.417 2.05Z"/>
</svg>
