<svg width="1512" height="982" viewBox="0 0 1512 982" fill="none" xmlns="http://www.w3.org/2000/svg">
<path fill-rule="evenodd" clip-rule="evenodd" d="M1094.11 0C1110.72 34.6353 1130.99 68.4843 1152.4 90.3687C1169.56 107.917 1184.33 114.608 1196.3 113.097C1207.93 111.629 1223.75 101.477 1240.82 67.8679C1252.81 44.251 1261.62 21.5976 1268.12 0L1299.35 0C1292.19 25.6983 1282.04 52.9399 1267.57 81.4508C1249 118.004 1226.71 139.497 1200.06 142.86C1173.75 146.181 1150.07 130.89 1130.95 111.347C1103.78 83.5657 1079.47 40.7538 1061.01 0L1094.11 0ZM0 141.32C2.38697 138.609 4.79223 135.934 7.2151 133.297C38.1764 99.6032 72.8602 71.2809 109.91 56.4597C147.528 41.4118 187.575 40.3613 227.173 61.415C269.902 84.1342 301.695 92.7243 328.086 92.6413C354.185 92.5591 376.719 83.9913 401.137 68.9979C418.789 58.1589 436.498 44.6039 456.959 28.9422L456.959 28.9417C465.568 22.3519 474.665 15.3891 484.449 8.09879C488.035 5.42651 491.696 2.72507 495.438 0L548.049 0C531.486 10.8751 516.411 21.6956 502.374 32.1552C493.491 38.7735 484.898 45.3504 476.537 51.7497L476.537 51.7499C455.471 67.8739 435.877 82.8708 416.835 94.5631C389.574 111.302 361.619 122.536 328.18 122.641C295.033 122.745 258.237 111.909 213.089 87.9037C182.384 71.5779 151.695 72.0558 121.053 84.3137C89.8435 96.7984 58.7434 121.559 29.3052 153.596C19.2226 164.568 9.43416 176.284 0 188.483V141.32ZM0 294.936L0 243.012C10.1765 229.526 20.7863 216.55 31.7643 204.393C62.1897 170.702 96.3046 142.344 132.789 127.494C169.869 112.401 209.387 111.345 248.429 132.467C290.4 155.174 321.567 163.724 347.386 163.642C372.907 163.56 394.971 155.039 418.946 140.06C436.282 129.228 453.67 115.686 473.773 100.028C482.236 93.4368 491.18 86.4706 500.804 79.1742C532.78 54.9309 570.781 28.2801 619.737 3.36258C621.983 2.2195 624.229 1.09875 626.474 0H709.082C684.053 7.3337 658.689 17.1989 633.345 30.0987C586.574 53.9043 550.146 79.4123 518.928 103.08C510.206 109.693 501.766 116.266 493.551 122.664L493.549 122.665L493.547 122.667C472.84 138.794 453.568 153.802 434.842 165.502C408.028 182.255 380.473 193.536 347.482 193.641C314.787 193.746 278.547 182.87 234.153 158.853C204.103 142.595 174.103 143.067 144.099 155.28C113.499 167.735 82.9631 192.461 54.029 224.5C34.7855 245.809 16.6313 269.924 0 294.936ZM0 833.644L0 768.063C26.855 719.556 60.8233 668.076 99.2146 626.297C130.176 592.603 164.86 564.28 201.91 549.459C239.527 534.411 279.574 533.361 319.172 554.415C361.902 577.134 393.695 585.724 420.085 585.641C446.185 585.559 468.719 576.991 493.137 561.997C510.789 551.158 528.498 537.603 548.959 521.941L548.962 521.938L548.981 521.924L548.997 521.912C557.595 515.331 566.679 508.378 576.448 501.098C608.98 476.859 647.631 450.22 697.42 425.315C778.613 384.7 871.658 376.562 954.087 382.352C1036.59 388.148 1109.86 407.993 1152.58 424.768L1158.89 427.248L1161.2 433.63C1179.38 483.924 1210.47 548.678 1244.4 583.368C1261.56 600.917 1276.33 607.608 1288.3 606.096C1299.93 604.628 1315.75 594.476 1332.82 560.867C1375.74 476.332 1377.88 404.139 1379.48 348.535L1379.53 346.756C1380.29 320.3 1381.01 295.275 1387.47 275.624C1390.92 265.129 1396.19 255.449 1404.44 247.501C1412.71 239.531 1423.17 234.087 1435.78 230.816C1467.58 222.568 1492.94 228.436 1512 241.283V283.045C1509.42 279.348 1506.5 275.823 1503.2 272.637C1490.71 260.562 1472.09 252.393 1443.31 259.856C1434.73 262.082 1429.15 265.352 1425.25 269.108C1421.33 272.886 1418.28 277.944 1415.97 284.993C1411.04 299.993 1410.3 320.602 1409.47 349.398L1409.46 349.767C1407.84 405.949 1405.61 483.781 1359.57 574.45C1341 611.003 1318.71 632.496 1292.06 635.86C1265.75 639.18 1242.07 623.89 1222.95 604.346C1185.93 566.495 1154.22 500.74 1135.37 450.306C1094.54 435.1 1027.35 417.572 951.985 412.278C872.573 406.7 785.494 414.803 710.841 452.145C663.224 475.964 626.143 501.483 594.373 525.155C585.494 531.77 576.905 538.344 568.548 544.741L568.541 544.746L568.537 544.749L568.536 544.75C547.47 560.874 527.876 575.871 508.834 587.563C481.573 604.302 453.619 615.535 420.18 615.641C387.032 615.745 350.237 604.908 305.088 580.903C274.383 564.578 243.695 565.055 213.052 577.313C181.843 589.798 150.743 614.559 121.305 646.595C71.1023 701.229 28.1915 774.297 0 833.644ZM0 928.001L0 891.068C28.5711 830.023 72.0878 754.616 123.764 697.394C154.189 663.703 188.304 635.345 224.788 620.495C261.869 605.402 301.387 604.346 340.428 625.467C382.4 648.174 413.567 656.725 439.385 656.642C464.907 656.561 486.971 648.04 510.946 633.06C528.281 622.229 545.669 608.687 565.772 593.029L565.782 593.022C574.242 586.432 583.183 579.469 592.803 572.175C624.78 547.932 662.78 521.281 711.736 496.363C870.003 415.809 1028.28 446.095 1112.07 479.572L1118.36 482.088L1120.63 488.479C1137.87 536.98 1181.79 605.98 1229.08 645.198C1252.89 664.943 1275.15 675.143 1293.67 674.454C1310.52 673.827 1328.65 663.889 1344.58 631.962C1388.03 544.898 1408.05 487.579 1417.38 441.872C1425.73 400.939 1425.64 368.86 1425.53 331.304C1425.51 326.951 1425.5 322.524 1425.5 318.002C1425.5 307.754 1426.99 298.114 1431.54 290.572C1436.79 281.869 1445.26 277.419 1454.65 277.418C1462.77 277.416 1470.49 280.7 1476.79 284.341C1483.36 288.143 1489.97 293.277 1496.24 298.926C1501.58 303.733 1506.9 309.126 1512 314.79V363.978C1510.35 361.378 1508.52 358.66 1506.54 355.869C1497.85 343.624 1486.8 330.798 1476.16 321.213C1470.83 316.414 1465.94 312.721 1461.77 310.309C1459.44 308.966 1457.72 308.237 1456.54 307.848C1456.05 309.62 1455.5 312.786 1455.5 318.002C1455.5 322.473 1455.51 326.894 1455.53 331.282C1455.65 368.726 1455.77 403.778 1446.77 447.868C1436.73 497.096 1415.51 557.019 1371.42 645.359C1352.34 683.594 1326.03 703.271 1294.79 704.433C1265.22 705.533 1235.74 689.693 1209.93 668.289C1160.08 626.947 1114.96 557.37 1094.78 505.033C1014.56 474.574 869.635 449.659 725.344 523.099C678.573 546.905 642.145 572.413 610.928 596.081C602.206 602.694 593.765 609.267 585.55 615.665L585.55 615.665C564.842 631.793 545.569 646.802 526.842 658.503C500.028 675.256 472.473 686.537 439.481 686.642C406.786 686.747 370.547 675.871 326.153 651.854C296.102 635.596 266.103 636.068 236.098 648.281C205.499 660.736 174.963 685.461 146.028 717.501C88.2092 781.526 40.2241 870.883 13.8325 933.803L0 928.001ZM453.631 982H399.92C418.71 966.949 438.449 954.647 458.91 946.462C496.527 931.414 536.574 930.363 576.172 951.417C612.093 970.516 640.284 979.63 664.035 982H569.959C567.363 980.68 564.74 979.316 562.088 977.906C531.383 961.58 500.695 962.058 470.052 974.316C464.572 976.508 459.096 979.078 453.631 982ZM882.78 982H833.098C838.448 977.852 844.002 973.574 849.803 969.176C881.779 944.933 919.78 918.282 968.736 893.364C1127 812.81 1285.28 843.096 1369.07 876.573L1375.36 879.089L1377.63 885.48C1387.76 913.976 1407.1 949.549 1430.92 982H1394.31C1376.07 954.672 1361.2 926.473 1351.78 902.034C1271.56 871.575 1126.64 846.66 982.344 920.1C942.795 940.23 910.641 961.577 882.78 982ZM1463.23 982C1433.45 943.577 1408.31 889.963 1392.37 847.308C1351.54 832.103 1284.35 814.575 1208.98 809.281C1129.57 803.702 1042.49 811.805 967.84 849.148C920.224 872.966 883.142 898.485 851.373 922.157C842.49 928.775 833.897 935.352 825.536 941.752C805.98 956.72 787.693 970.716 769.939 982H688.993C710.221 979.748 729.506 971.667 750.136 959C767.788 948.161 785.496 934.607 805.955 918.946L805.959 918.943C814.568 912.354 823.664 905.391 833.448 898.101C865.98 873.861 904.631 847.222 954.419 822.317C1035.61 781.703 1128.66 773.564 1211.09 779.354C1293.59 785.15 1366.86 804.995 1409.58 821.77L1415.89 824.251L1418.2 830.632C1436.38 880.926 1467.46 945.68 1501.4 980.37C1501.94 980.924 1502.48 981.468 1503.02 982H1463.23ZM1311.73 0L1343.18 0C1330.77 40.5805 1310.94 89.2085 1279.42 152.358C1260.34 190.593 1234.03 210.271 1202.79 211.433C1173.22 212.532 1143.74 196.692 1117.93 175.288C1068.08 133.946 1022.96 64.3689 1002.78 12.032C991.726 7.83512 979.444 3.74354 966.105 0H1030.3C1048.57 48.1863 1091.25 114.182 1137.08 152.197C1160.89 171.943 1183.15 182.142 1201.67 181.453C1218.52 180.827 1236.65 170.888 1252.58 138.962C1281.32 81.3784 1299.81 36.8064 1311.73 0Z" fill="#0154B8" fill-opacity="0.13"/>
</svg>
