<svg xmlns="http://www.w3.org/2000/svg" width="26" height="20" fill="none" viewBox="0 0 26 20">
  <path fill="#0154B8" fill-rule="evenodd" d="M13 16.494c-1.46-.055-2.927-.424-4.306-1.004-2.03-.854-3.846-2.158-5.15-3.552C2.225 10.526 1.5 9.098 1.5 8h-1c0 1.452.9 3.087 2.246 4.547l-2.6 2.6.708.707 2.595-2.596a16.572 16.572 0 0 0 4.372 2.94l-1.27 2.581.898.442 1.295-2.633c1.356.523 2.8.856 4.256.906v-1Zm0 0c1.46-.055 2.927-.424 4.306-1.004 2.03-.854 3.846-2.158 5.15-3.552C23.775 10.526 24.5 9.098 24.5 8h1c0 1.452-.9 3.087-2.246 4.547l2.6 2.6-.708.707-2.595-2.596a16.573 16.573 0 0 1-4.372 2.94l1.27 2.581-.898.442-1.295-2.633c-1.384.533-2.542.854-4.256.905v-1Z" clip-rule="evenodd"/>
</svg>
