<svg xmlns="http://www.w3.org/2000/svg" width="270" height="252" fill="none" viewBox="0 0 270 252">
  <path fill="#0154B8" fill-opacity=".42" fill-rule="evenodd" d="M44.752 32.06A6.752 6.752 0 0 0 38 38.81v22.437A6.752 6.752 0 0 0 44.752 68h39.32a6.752 6.752 0 0 0 6.752-6.752V38.811a6.752 6.752 0 0 0-6.752-6.751h-39.32Zm19.335 10.548c.194-.1.425-.1.62 0l8.039 4.145a.676.676 0 0 1 0 1.202l-8.04 4.144c-.194.1-.425.1-.62 0l-8.038-4.144a.676.676 0 0 1 0-1.202l8.039-4.145Zm-5.856 7.475v3.925c1.4-.145 3.097.272 4.42 1.183 1.049.722 1.647 1.606 1.744 2.422h.029c.095-.817.693-1.704 1.745-2.428 1.336-.92 3.055-1.336 4.463-1.178v-3.961L64.705 53.1c-.194.1-.425.1-.62 0l-5.854-3.018ZM53.07 15a3.396 3.396 0 0 0-3.397 3.396v7.098a3.396 3.396 0 0 0 3.396 3.396h4.166v-5.198a2.855 2.855 0 0 1 2.855-2.855h8.514a2.855 2.855 0 0 1 2.855 2.855v5.198h4.276a3.396 3.396 0 0 0 3.395-3.396v-7.098A3.396 3.396 0 0 0 75.736 15H53.069Z" clip-rule="evenodd"/>
  <path fill="#0154B8" fill-opacity=".14" fill-rule="evenodd" d="M120.833 9.685A3.833 3.833 0 0 0 117 13.518v12.738a3.833 3.833 0 0 0 3.833 3.833h22.322a3.833 3.833 0 0 0 3.833-3.833V13.518a3.833 3.833 0 0 0-3.833-3.833h-22.322Zm10.977 5.99a.384.384 0 0 1 .352 0l4.563 2.352a.384.384 0 0 1 0 .683l-4.563 2.353a.384.384 0 0 1-.352 0l-4.564-2.353a.384.384 0 0 1 0-.683l4.564-2.353Zm-3.325 4.243v2.229c.795-.083 1.758.154 2.509.67.596.41.935.913.991 1.377h.016c.054-.465.393-.968.991-1.38.758-.522 1.734-.758 2.533-.668v-2.249l-3.365 1.735a.384.384 0 0 1-.352 0l-3.323-1.714ZM125.554 0a1.928 1.928 0 0 0-1.928 1.928v4.03c0 1.064.863 1.927 1.928 1.927h2.365v-2.95c0-.895.726-1.621 1.621-1.621h4.834c.895 0 1.62.726 1.62 1.62v2.951h2.427a1.928 1.928 0 0 0 1.928-1.928V1.928A1.928 1.928 0 0 0 138.421 0h-12.867Z" clip-rule="evenodd"/>
  <path fill="#0154B8" fill-opacity=".42" fill-rule="evenodd" d="M211.564 205.64a8.563 8.563 0 0 0-8.564 8.563v28.458a8.564 8.564 0 0 0 8.564 8.564h49.872a8.564 8.564 0 0 0 8.564-8.564v-28.458a8.563 8.563 0 0 0-8.564-8.563h-49.872Zm24.529 13.381a.858.858 0 0 1 .786 0l10.196 5.256a.858.858 0 0 1 0 1.526l-10.196 5.256a.858.858 0 0 1-.786 0l-10.196-5.256a.858.858 0 0 1 0-1.526l10.196-5.256Zm-7.428 9.482v4.977c1.776-.184 3.929.345 5.607 1.5 1.331.917 2.09 2.039 2.213 3.074h.033c.121-1.037.88-2.162 2.214-3.081 1.695-1.167 3.876-1.695 5.663-1.494v-5.024l-7.519 3.876a.858.858 0 0 1-.786 0l-7.425-3.828ZM222.113 184a4.307 4.307 0 0 0-4.308 4.307v9.003a4.307 4.307 0 0 0 4.308 4.307h5.284v-6.593c0-2 1.621-3.621 3.621-3.621h10.799c2 0 3.621 1.621 3.621 3.621v6.593h5.422a4.307 4.307 0 0 0 4.308-4.307v-9.003A4.307 4.307 0 0 0 250.86 184h-28.747Z" clip-rule="evenodd"/>
  <path fill="#0154B8" fill-opacity=".14" fill-rule="evenodd" d="M4.093 90.342A4.093 4.093 0 0 0 0 94.435v13.6a4.093 4.093 0 0 0 4.093 4.093h23.834a4.093 4.093 0 0 0 4.093-4.093v-13.6a4.093 4.093 0 0 0-4.093-4.093H4.093Zm11.723 6.395a.41.41 0 0 1 .375 0l4.873 2.512a.41.41 0 0 1 0 .73l-4.873 2.511a.409.409 0 0 1-.375 0l-4.873-2.512a.41.41 0 0 1 0-.729l4.873-2.512Zm-3.549 4.532v2.379c.849-.088 1.877.165 2.679.717.636.437.998.974 1.057 1.469h.018c.058-.496.42-1.034 1.058-1.472.81-.558 1.852-.81 2.706-.714v-2.402l-3.593 1.852a.409.409 0 0 1-.376 0l-3.549-1.829ZM9.135 80a2.058 2.058 0 0 0-2.059 2.058v4.303c0 1.137.922 2.058 2.059 2.058h2.525v-3.15c0-.956.774-1.73 1.73-1.73h5.161c.956 0 1.73.774 1.73 1.73v3.15h2.593a2.058 2.058 0 0 0 2.058-2.058v-4.303A2.058 2.058 0 0 0 22.874 80H9.133Z" clip-rule="evenodd"/>
  <path fill="#0154B8" fill-opacity=".42" fill-rule="evenodd" d="M208.605 44.164A5.605 5.605 0 0 0 203 49.769v18.627A5.605 5.605 0 0 0 208.605 74h32.643a5.605 5.605 0 0 0 5.605-5.606V49.77a5.605 5.605 0 0 0-5.605-5.605h-32.643Zm16.056 8.759a.562.562 0 0 1 .515 0l6.674 3.44c.405.21.405.79 0 .999l-6.674 3.44a.562.562 0 0 1-.515 0l-6.673-3.44a.561.561 0 0 1 0-.999l6.673-3.44Zm-4.861 6.206v3.258c1.163-.12 2.572.226 3.67.982.871.6 1.367 1.334 1.448 2.012h.023c.079-.68.575-1.416 1.448-2.017 1.11-.764 2.537-1.11 3.707-.978v-3.289l-4.921 2.537a.562.562 0 0 1-.515 0l-4.86-2.505ZM215.51 30a2.82 2.82 0 0 0-2.82 2.82v5.892a2.82 2.82 0 0 0 2.82 2.819h3.458v-4.315a2.37 2.37 0 0 1 2.371-2.37h7.068a2.37 2.37 0 0 1 2.37 2.37v4.315h3.549a2.819 2.819 0 0 0 2.819-2.82V32.82a2.819 2.819 0 0 0-2.819-2.82H215.51Z" clip-rule="evenodd"/>
  <path fill="#0154B8" fill-rule="evenodd" d="M92.488 109.661c-9.106 0-16.488 7.382-16.488 16.488v54.793c0 9.106 7.382 16.488 16.488 16.488h96.024c9.106 0 16.488-7.382 16.488-16.488v-54.793c0-9.106-7.382-16.488-16.488-16.488H92.488Zm47.22 25.763a1.651 1.651 0 0 1 1.514 0l19.631 10.12c1.193.615 1.193 2.322 0 2.937l-19.631 10.121a1.651 1.651 0 0 1-1.514 0l-19.632-10.121c-1.193-.615-1.193-2.322 0-2.937l19.632-10.12Zm-14.299 18.253v9.585c3.42-.353 7.564.665 10.793 2.889 2.562 1.763 4.022 3.923 4.26 5.916h.069c.232-1.997 1.693-4.163 4.262-5.932 3.264-2.247 7.462-3.263 10.902-2.876v-9.673l-14.475 7.462a1.651 1.651 0 0 1-1.514 0l-14.297-7.371ZM112.8 68a8.292 8.292 0 0 0-8.293 8.293v17.333a8.292 8.292 0 0 0 8.293 8.293h10.172V89.226a6.973 6.973 0 0 1 6.973-6.972h20.792a6.972 6.972 0 0 1 6.972 6.972v12.693h10.441a8.293 8.293 0 0 0 8.293-8.293V76.293A8.293 8.293 0 0 0 168.15 68H112.8Z" clip-rule="evenodd"/>
  <path fill="#0154B8" fill-opacity=".42" fill-rule="evenodd" d="M17.752 220.533A5.751 5.751 0 0 0 12 226.284v19.114a5.752 5.752 0 0 0 5.752 5.752h33.496A5.752 5.752 0 0 0 57 245.398v-19.114a5.751 5.751 0 0 0-5.752-5.751H17.752Zm16.472 8.986a.573.573 0 0 1 .528 0l6.848 3.53a.577.577 0 0 1 0 1.025l-6.848 3.53a.573.573 0 0 1-.528 0l-6.848-3.53a.577.577 0 0 1 0-1.025l6.848-3.53Zm-4.988 6.367v3.344c1.193-.123 2.639.232 3.765 1.007.894.616 1.403 1.369 1.486 2.064h.024c.081-.696.59-1.452 1.487-2.069 1.139-.784 2.603-1.138 3.803-1.003v-3.374l-5.049 2.603a.579.579 0 0 1-.528 0l-4.988-2.572ZM24.837 206a2.893 2.893 0 0 0-2.892 2.893v6.046a2.893 2.893 0 0 0 2.892 2.893h3.55v-4.428a2.432 2.432 0 0 1 2.431-2.432h7.254a2.432 2.432 0 0 1 2.432 2.432v4.428h3.642a2.893 2.893 0 0 0 2.893-2.893v-6.046A2.893 2.893 0 0 0 44.146 206H24.837Z" clip-rule="evenodd"/>
  <path fill="#0154B8" fill-opacity=".14" fill-rule="evenodd" d="M29.195 162.073A3.195 3.195 0 0 0 26 165.268v10.619a3.195 3.195 0 0 0 3.195 3.195h18.61A3.195 3.195 0 0 0 51 175.887v-10.619a3.195 3.195 0 0 0-3.195-3.195h-18.61Zm9.152 4.992a.317.317 0 0 1 .294 0l3.804 1.961a.32.32 0 0 1 0 .569l-3.804 1.962a.323.323 0 0 1-.294 0l-3.804-1.962a.32.32 0 0 1 0-.569l3.804-1.961Zm-2.772 3.536v1.858c.663-.068 1.466.129 2.092.56.496.342.78.76.825 1.146h.015c.045-.387.328-.806.826-1.148.632-.436 1.445-.633 2.112-.558v-1.875l-2.805 1.446a.317.317 0 0 1-.294 0l-2.77-1.429ZM33.132 154c-.887 0-1.607.72-1.607 1.607v3.359c0 .888.72 1.608 1.607 1.608h1.971v-2.46c0-.746.605-1.351 1.352-1.351h4.03c.745 0 1.35.605 1.35 1.351v2.46h2.024c.888 0 1.607-.72 1.607-1.608v-3.359c0-.887-.72-1.607-1.607-1.607H33.132Z" clip-rule="evenodd"/>
</svg>
