<svg xmlns="http://www.w3.org/2000/svg" width="185" height="203" fill="none" viewBox="0 0 185 203">
  <path fill="#0154B8" d="M0 63.362C.4 158.283 61.833 196.005 92.5 203c30.667-6.995 92.1-44.717 92.5-139.638-41.2 0-78.833-42.241-92.5-63.362C78.833 21.12 41.2 63.362 0 63.362Z"/>
  <path fill="#0154B8" stroke="#F1F9FF" stroke-width="11.623" d="M22.188 181.935v5.811h42.03c3.745 0 6.999-1.812 9.497-3.805 2.579-2.057 4.99-4.812 7.17-7.825 4.372-6.044 8.369-13.904 11.308-21.636 2.913-7.659 5-15.746 5.15-22.226.073-3.168-.291-6.682-1.895-9.612-1.859-3.398-5.17-5.559-9.4-5.559H66.36c.898-4.798 1.685-11.047 1.685-17.755 0-9.227-5.958-15.957-13.74-16.136-3.717-.086-7.377 1.437-10.03 4.437-2.642 2.988-3.977 7.064-3.977 11.699 0 1.278-.521 2.942-1.935 5.185-1.412 2.239-3.374 4.538-5.654 7.105l-.786.883c-1.959 2.196-4.135 4.636-5.835 7.034-1.876 2.647-3.9 6.207-3.9 10.305v52.095Z"/>
</svg>
