<svg width="67" height="47" viewBox="0 0 67 47" fill="none" xmlns="http://www.w3.org/2000/svg">
<path fill-rule="evenodd" clip-rule="evenodd" d="M8.56359 0.639526C3.83405 0.639526 0 4.47358 0 9.20313V37.6614C0 42.3909 3.83405 46.225 8.56359 46.225H58.4364C63.1659 46.225 67 42.3909 67 37.6614V9.20312C67 4.47358 63.166 0.639526 58.4364 0.639526H8.56359ZM33.093 14.0208C33.3397 13.8936 33.6327 13.8936 33.8794 14.0208L44.0754 19.2772C44.6953 19.5968 44.6953 20.483 44.0754 20.8026L33.8794 26.059C33.6327 26.1862 33.3397 26.1862 33.093 26.059L22.897 20.8026C22.2771 20.483 22.2771 19.5968 22.897 19.2772L33.093 14.0208ZM25.6648 23.503V28.4804C27.4413 28.2964 29.5943 28.8251 31.2722 29.9803C32.6033 30.8967 33.3616 32.0189 33.4849 33.0543H33.5184C33.6391 32.017 34.3979 30.8917 35.7319 29.9732C37.4273 28.806 39.6078 28.2784 41.3948 28.4793V23.455L33.8765 27.3309C33.6298 27.4581 33.3368 27.4581 33.0901 27.3309L25.6648 23.503Z" fill="#0154B8" fill-opacity="0.42"/>
</svg>
