<svg width="129" height="89" viewBox="0 0 129 89" fill="none" xmlns="http://www.w3.org/2000/svg">
<path fill-rule="evenodd" clip-rule="evenodd" d="M16.4881 0.661072C7.38198 0.661072 0 8.04305 0 17.1492V71.942C0 81.0481 7.38198 88.4301 16.4881 88.4301H112.512C121.618 88.4301 129 81.0481 129 71.942V17.1492C129 8.04305 121.618 0.661072 112.512 0.661072H16.4881ZM63.7076 26.4237C64.1826 26.1788 64.7467 26.1788 65.2217 26.4237L84.8528 36.5442C86.0463 37.1595 86.0463 38.8659 84.8528 39.4812L65.2217 49.6017C64.7467 49.8466 64.1826 49.8466 63.7076 49.6017L44.0765 39.4812C42.883 38.8659 42.883 37.1595 44.0765 36.5442L63.7076 26.4237ZM49.409 44.6774V54.2625C52.8287 53.9091 56.9726 54.927 60.2023 57.1506C62.7641 58.9143 64.2241 61.0742 64.4622 63.067H64.5308C64.7634 61.07 66.2243 58.9037 68.7925 57.1355C72.0566 54.8882 76.2546 53.8724 79.695 54.2592V44.5859L65.2203 52.0481C64.7453 52.293 64.1812 52.293 63.7062 52.0481L49.409 44.6774Z" fill="#0154B8"/>
</svg>
