<svg xmlns="http://www.w3.org/2000/svg" width="179" height="216" fill="none" viewBox="0 0 179 216">
  <path fill="#0154B8" d="M59.5 26.002 75.715 59C78.16 56 84.44 50 90 50c5.56 0 11.84 6 14.285 9L120.5 26.002C120.5 8.403 103.127 0 90 0 76.873 0 59.5 8.403 59.5 26.002Z"/>
  <path fill="#0154B8" d="M89.503 54c-3.5 0-11 3.53-13.5 10.198L57 178.5 89.503 216V54Zm13.5 10.198c-2.5-6.668-10-10.198-13.5-10.198v162l32.503-37.5-19.003-114.302Z"/>
  <path fill="#0154B8" fill-opacity=".37" d="M1.27 67.001 9.5 83.5c1.242-1.5 4.43-4.5 7.252-4.5 2.823 0 6.01 3 7.252 4.5l8.232-16.499c0-8.8-8.82-13.001-15.484-13.001C10.09 54 1.27 58.202 1.27 67.001Z"/>
  <path fill="#0154B8" fill-opacity=".37" d="M16.5 81c-1.777 0-5.584 1.765-6.853 5.099L0 143.25 16.5 162V81Zm6.853 5.099C22.084 82.765 18.277 81 16.5 81v81L33 143.25l-9.647-57.151Zm123.916-19.098 8.232 16.499c1.241-1.5 4.429-4.5 7.251-4.5 2.823 0 6.011 3 7.252 4.5l8.232-16.499c0-8.8-8.82-13.001-15.484-13.001-6.663 0-15.483 4.202-15.483 13.001Z"/>
  <path fill="#0154B8" fill-opacity=".37" d="M162.5 81c-1.777 0-5.584 1.765-6.853 5.099L146 143.25 162.5 162V81Zm6.853 5.099C168.084 82.765 164.277 81 162.5 81v81l16.5-18.75-9.647-57.151Z"/>
</svg>
