<svg width="88" height="117" viewBox="0 0 88 117" fill="none" xmlns="http://www.w3.org/2000/svg">
<path d="M6.18842 104.935V110.746H12H48.2181C51.9632 110.746 55.2167 108.934 57.7149 106.941C60.294 104.884 62.7048 102.129 64.8845 99.116C69.2569 93.0717 73.2536 85.2118 76.1935 77.4802C79.1058 69.8212 81.1931 61.7341 81.3429 55.2537C81.4161 52.0855 81.0515 48.5717 79.4485 45.6419C77.5894 42.2438 74.2772 40.0828 70.0482 40.0828H50.3596C51.2585 35.2852 52.0451 29.0361 52.0451 22.3278C52.0451 13.1015 46.0866 6.37142 38.3054 6.19185C34.5884 6.10607 30.9275 7.62944 28.2751 10.6287C25.6325 13.6168 24.2975 17.6927 24.2975 22.3278C24.2975 23.606 23.7768 25.2703 22.3633 27.5125C20.9514 29.7522 18.9891 32.0507 16.7091 34.6181C16.4523 34.9073 16.1897 35.2017 15.923 35.5007C13.9644 37.6966 11.7882 40.1366 10.0881 42.5354C8.2124 45.1819 6.18842 48.7422 6.18842 52.8403V104.935Z" fill="#0154B8" stroke="#F1F9FF" stroke-width="11.6232"/>
</svg>
