<svg xmlns="http://www.w3.org/2000/svg" width="180" height="243" fill="none" viewBox="0 0 180 243">
  <path fill="#6CA1DC" d="M81.637 4.7c0-2.595 1.783-4.7 3.982-4.7h90.399C178.217 0 180 2.105 180 4.7v5.64c0 2.596-1.783 4.7-3.982 4.7H85.619c-2.2 0-3.982-2.104-3.982-4.7V4.7Z"/>
  <path fill="#6CA1DC" fill-rule="evenodd" d="M7.168 121.265c-3.959 0-7.168 3.788-7.168 8.46V243h72.876V121.265H7.168Zm11.947 15.041c-2.2 0-3.982 2.104-3.982 4.7v6.58c0 2.596 1.782 4.7 3.982 4.7h38.23v-11.28c0-2.596-1.783-4.7-3.982-4.7H19.115Zm-3.982 33.371c0-2.596 1.782-4.7 3.982-4.7h34.248c2.2 0 3.982 2.104 3.982 4.7v11.28h-38.23c-2.2 0-3.982-2.104-3.982-4.7v-6.58Zm3.982 23.971c-2.2 0-3.982 2.104-3.982 4.7v6.58c0 2.596 1.782 4.701 3.982 4.701h34.248c2.2 0 3.982-2.105 3.982-4.701v-6.58c0-2.596-1.783-4.7-3.982-4.7H19.115ZM86.018 25.381h89.202V234.54c0 4.672-3.209 8.46-7.168 8.46H143.76v-45.122c0-2.596-1.783-4.7-3.982-4.7H121.46c-2.199 0-3.982 2.104-3.982 4.7V243h-31.46V25.381Zm15.22 20.68c0-2.595 1.784-4.7 3.983-4.7h13.274c2.2 0 3.982 2.105 3.982 4.7v6.581c0 2.596-1.782 4.7-3.982 4.7h-13.274c-2.199 0-3.983-2.104-3.983-4.7v-6.58Zm41.505-4.7c-2.2 0-3.982 2.105-3.982 4.7v6.581c0 2.596 1.782 4.7 3.982 4.7h13.274c2.199 0 3.983-2.104 3.983-4.7v-6.58c0-2.596-1.784-4.7-3.983-4.7h-13.274Zm-41.505 33.372c0-2.596 1.784-4.7 3.983-4.7h13.274c2.2 0 3.982 2.104 3.982 4.7v6.58c0 2.596-1.782 4.7-3.982 4.7h-13.274c-2.199 0-3.983-2.104-3.983-4.7v-6.58Zm41.505-4.7c-2.2 0-3.982 2.104-3.982 4.7v6.58c0 2.596 1.782 4.7 3.982 4.7h13.274c2.199 0 3.983-2.104 3.983-4.7v-6.58c0-2.596-1.784-4.7-3.983-4.7h-13.274Zm-41.505 33.371c0-2.595 1.784-4.7 3.983-4.7h13.274c2.2 0 3.982 2.105 3.982 4.7v6.581c0 2.595-1.782 4.7-3.982 4.7h-13.274c-2.199 0-3.983-2.105-3.983-4.7v-6.581Zm41.505-4.7c-2.2 0-3.982 2.105-3.982 4.7v6.581c0 2.595 1.782 4.7 3.982 4.7h13.274c2.199 0 3.983-2.105 3.983-4.7v-6.581c0-2.595-1.784-4.7-3.983-4.7h-13.274Zm-41.505 33.371c0-2.595 1.784-4.7 3.983-4.7h13.274c2.2 0 3.982 2.105 3.982 4.7v6.581c0 2.595-1.782 4.7-3.982 4.7h-13.274c-2.199 0-3.983-2.105-3.983-4.7v-6.581Zm41.505-4.7c-2.2 0-3.982 2.105-3.982 4.7v6.581c0 2.595 1.782 4.7 3.982 4.7h13.274c2.199 0 3.983-2.105 3.983-4.7v-6.581c0-2.595-1.784-4.7-3.983-4.7h-13.274Zm-41.505 33.372c0-2.596 1.784-4.701 3.983-4.701h13.274c2.2 0 3.982 2.105 3.982 4.701v6.58c0 2.596-1.782 4.7-3.982 4.7h-13.274c-2.199 0-3.983-2.104-3.983-4.7v-6.58Zm41.505-4.701c-2.2 0-3.982 2.105-3.982 4.701v6.58c0 2.596 1.782 4.7 3.982 4.7h13.274c2.199 0 3.983-2.104 3.983-4.7v-6.58c0-2.596-1.784-4.701-3.983-4.701h-13.274Z" clip-rule="evenodd"/>
</svg>
