<svg xmlns="http://www.w3.org/2000/svg" width="156" height="243" fill="none" viewBox="0 0 156 243">
  <path fill="#6CA1DC" d="M146.985 32.355C146.983 27.617 93.406.01 77.949 0 62.493.009 8.916 27.617 8.914 32.355c-.001 2.06 13.04 7.014 27.785 11.957v-.023l.001-2.786c0-11.86 18.468-21.474 41.25-21.476 22.781.002 41.249 9.616 41.249 21.476v2.809c14.746-4.943 27.787-9.897 27.786-11.957Z"/>
  <path fill="#6CA1DC" d="M77.95 26.71c-19.189 0-34.745 8.362-34.745 18.676v16.637l-.003.293c-.013.71-.027 1.518.567 1.518C45.009 56.817 58.872 45.5 77.948 45.5h.003c19.076 0 32.938 11.318 34.179 18.335.594 0 .579-.808.567-1.518-.002-.1-.004-.199-.004-.293v-.854l.001-6.502V47.79l-.001-2.404c0-10.314-15.555-18.675-34.744-18.675Z"/>
  <path fill="#6CA1DC" d="M77.95 51.724c17.773 0 32.72 11.224 32.168 23.016-1.117 23.708-10.591 30.727-13.646 32.99l-.001.001-.002.002-.28.207c-1.454 1.092-9.848 7.373-18.24 7.392-8.391-.019-16.785-6.3-18.24-7.392l-.279-.207-.002-.002-.002-.001c-3.054-2.263-12.528-9.282-13.645-32.99-.553-11.792 14.394-23.016 32.168-23.016Zm12.848 67.055c-3.318 1.552-7.39 3.457-12.849 3.457-5.459 0-9.53-1.905-12.848-3.457-1.05-.492-2.025-.948-2.945-1.297v14.086c1.889 1.718 7.749 5.155 15.793 5.155 8.045 0 13.905-3.437 15.793-5.155v-14.086c-.92.349-1.894.805-2.944 1.297Z"/>
  <path fill="#6CA1DC" d="M77.95 142.721c5.463-.001 15.316-.125 21.658-9.167 16.583 5.093 39.581 19.316 44.784 34.181 6.656 19.014 11.507 37.349 11.507 75.265H0c0-37.916 4.85-56.251 11.506-75.265 5.203-14.865 28.202-29.088 44.784-34.181 6.342 9.042 16.195 9.166 21.66 9.167Zm32.939-80.904v.284-.284Zm-65.879 0v.283-.284ZM136 40.843V74.43c0 3.732 5 3.11 5 0V39c-1 0-4 .633-5 1.843Z"/>
</svg>
