<svg xmlns="http://www.w3.org/2000/svg" width="129" height="108" fill="none" viewBox="0 0 129 108">
  <path fill="#fff" d="M88.772 0c4.488 0 8.51 2.02 11.223 5.21l-7.717 6.238a4.891 4.891 0 0 0-3.506-1.479H14.795c-2.723 0-4.931 2.232-4.931 4.985v78.092c0 2.516 1.843 4.596 4.24 4.936l-.124.271 1.022-.222h73.77c2.724 0 4.932-2.232 4.932-4.985V57.311l9.863-7.974v43.71c0 8.258-6.624 14.953-14.795 14.953H14.795C6.625 108 0 101.305 0 93.046V14.954C0 6.695 6.624 0 14.795 0h73.977Z"/>
  <path fill="#fff" d="M129 23.356 111.544 1.298l-11.554 9.34 17.456 22.058L129 23.356ZM113.594 35.81 96.138 13.75 44.787 55.264l17.456 22.059 51.351-41.513ZM27.839 87.05l12.734-27.8L57.47 80.602 27.84 87.05Z"/>
</svg>
